<?xml version="1.0" encoding="UTF-8"?>
<svg xmlns="http://www.w3.org/2000/svg" xmlns:xlink="http://www.w3.org/1999/xlink" width="700pt" height="700pt" viewBox="0 0 700 700" version="1.1">
<g id="surface1">
<path style="fill:none;stroke-width:2;stroke-linecap:butt;stroke-linejoin:miter;stroke:rgb(0%,0%,0%);stroke-opacity:1;stroke-miterlimit:10;" d="M -88.388348 -88.388348 L -159.099026 -159.099026 L -88.388348 -229.809704 L -17.67767 -159.099026 Z M -88.388348 -88.388348 L -159.099026 -159.099026 L -159.099026 -88.388348 Z M -88.388348 -17.67767 L -159.099026 -17.67767 L -159.099026 -88.388348 L -88.388348 -88.388348 Z M -88.388348 -17.67767 L -159.099026 -17.67767 L -123.743687 17.67767 Z M -53.033009 17.67767 L -88.388348 53.033009 L -123.743687 17.67767 L -88.388348 -17.67767 Z M -53.033009 17.67767 L -88.388348 53.033009 L -53.033009 53.033009 Z M -17.67767 17.67767 L -17.67767 53.033009 L -53.033009 53.033009 L -53.033009 17.67767 Z M -17.67767 17.67767 L -17.67767 53.033009 L -0.000000000000085265 35.355339 Z M -0.000000000000056843 -0.000000000000056843 L 17.67767 17.67767 L -0.000000000000085265 35.355339 L -17.67767 17.67767 Z M -0.000000000000056843 -0.000000000000056843 L 17.67767 17.67767 L 17.67767 -0.000000000000056843 Z M -0.000000000000028422 -17.67767 L 17.67767 -17.67767 L 17.67767 -0.000000000000056843 L -0.000000000000056843 -0.000000000000056843 Z M -0.000000000000028422 -17.67767 L 17.67767 -17.67767 L 8.838835 -26.516504 Z M -0.000000000000028422 -17.67767 " transform="matrix(-0.707107,0.707107,-0.707107,-0.707107,325,300)"/>
</g>
</svg>
