<?xml version="1.0" encoding="UTF-8"?>
<svg xmlns="http://www.w3.org/2000/svg" xmlns:xlink="http://www.w3.org/1999/xlink" width="700pt" height="700pt" viewBox="0 0 700 700" version="1.1">
<g id="surface1">
<path style="fill:none;stroke-width:2;stroke-linecap:butt;stroke-linejoin:miter;stroke:rgb(0%,0%,0%);stroke-opacity:1;stroke-miterlimit:10;" d="M 2291.726189 -1190.685425 L 2391.726189 -1190.685425 L 2391.726189 -1090.685425 L 2291.726189 -1090.685425 Z M 2291.726189 -1190.685425 L 2391.726189 -1190.685425 L 2341.726189 -1240.685425 Z M 2241.726189 -1240.685425 L 2291.726189 -1290.685425 L 2341.726189 -1240.685425 L 2291.726189 -1190.685425 Z M 2241.726189 -1240.685425 L 2291.726189 -1290.685425 L 2241.726189 -1290.685425 Z M 2191.726189 -1240.685425 L 2191.726189 -1290.685425 L 2241.726189 -1290.685425 L 2241.726189 -1240.685425 Z M 2191.726189 -1240.685425 L 2191.726189 -1290.685425 L 2166.726189 -1265.685425 Z M 2166.726189 -1215.685425 L 2141.726189 -1240.685425 L 2166.726189 -1265.685425 L 2191.726189 -1240.685425 Z M 2166.726189 -1215.685425 L 2141.726189 -1240.685425 L 2141.726189 -1215.685425 Z M 2166.726189 -1190.685425 L 2141.726189 -1190.685425 L 2141.726189 -1215.685425 L 2166.726189 -1215.685425 Z M 2166.726189 -1190.685425 L 2141.726189 -1190.685425 L 2154.226189 -1178.185425 Z M 2179.226189 -1178.185425 L 2166.726189 -1165.685425 L 2154.226189 -1178.185425 L 2166.726189 -1190.685425 Z M 2179.226189 -1178.185425 L 2166.726189 -1165.685425 L 2179.226189 -1165.685425 Z M 2191.726189 -1178.185425 L 2191.726189 -1165.685425 L 2179.226189 -1165.685425 L 2179.226189 -1178.185425 Z M 2191.726189 -1178.185425 L 2191.726189 -1165.685425 L 2197.976189 -1171.935425 Z M 2197.976189 -1184.435425 L 2204.226189 -1178.185425 L 2197.976189 -1171.935425 L 2191.726189 -1178.185425 Z M 2197.976189 -1184.435425 L 2204.226189 -1178.185425 L 2204.226189 -1184.435425 Z M 2200.566033 -1187.025269 L 2200.566033 -1178.185425 L 2191.726189 -1178.185425 L 2191.726189 -1187.025269 Z M 2209.40197 -1187.025269 L 2209.40197 -1178.185425 L 2213.823845 -1182.603394 Z M 2218.241814 -1187.025269 L 2209.40197 -1178.185425 L 2200.562126 -1187.025269 L 2209.40197 -1195.865112 Z M 2227.081658 -1178.185425 L 2218.241814 -1169.345581 L 2227.081658 -1169.345581 Z M 2235.921501 -1178.185425 L 2235.921501 -1169.345581 L 2227.081658 -1169.345581 L 2227.081658 -1178.185425 Z M 2235.921501 -1178.185425 L 2235.921501 -1169.345581 L 2240.33947 -1173.767456 Z M 2239.581658 -1178.185425 L 2233.331658 -1171.935425 L 2227.081658 -1178.185425 L 2233.331658 -1184.435425 Z M 2245.831658 -1171.935425 L 2239.581658 -1165.685425 L 2245.831658 -1165.685425 Z M 2257.257439 -1160.509644 L 2239.581658 -1160.509644 L 2239.581658 -1178.185425 L 2257.257439 -1178.185425 Z M 2257.257439 -1142.829956 L 2239.581658 -1142.829956 L 2248.421501 -1133.990112 Z M 2266.097283 -1133.990112 L 2257.257439 -1125.150269 L 2248.417595 -1133.990112 L 2257.257439 -1142.829956 Z M 2266.097283 -1133.990112 L 2257.257439 -1125.154175 L 2266.097283 -1125.154175 Z M 2274.937126 -1133.990112 L 2274.937126 -1125.150269 L 2266.097283 -1125.150269 L 2266.097283 -1133.990112 Z M 2274.937126 -1133.990112 L 2274.937126 -1125.154175 L 2279.355095 -1129.572144 Z M 2278.597283 -1133.990112 L 2272.347283 -1127.740112 L 2266.097283 -1133.990112 L 2272.347283 -1140.240112 Z M 2284.847283 -1127.740112 L 2278.597283 -1121.490112 L 2284.847283 -1121.490112 Z M 2291.097283 -1121.490112 L 2278.597283 -1121.490112 L 2278.597283 -1133.990112 L 2291.097283 -1133.990112 Z M 2291.097283 -1108.990112 L 2278.597283 -1108.990112 L 2284.847283 -1102.740112 Z M 2297.347283 -1102.740112 L 2291.097283 -1096.490112 L 2284.847283 -1102.740112 L 2291.097283 -1108.990112 Z M 2297.347283 -1102.740112 L 2291.097283 -1096.490112 L 2297.347283 -1096.490112 Z M 2299.937126 -1100.154175 L 2291.097283 -1100.154175 L 2291.097283 -1108.994019 L 2299.937126 -1108.994019 Z M 2299.937126 -1091.314331 L 2291.097283 -1091.314331 L 2295.519158 -1086.892456 Z M 2299.937126 -1064.798706 L 2282.261345 -1082.474487 L 2299.937126 -1100.150269 L 2317.612908 -1082.474487 Z M 2282.257439 -1047.119019 L 2264.581658 -1064.798706 L 2264.581658 -1047.119019 Z M 2282.257439 -1029.443237 L 2264.581658 -1029.443237 L 2264.581658 -1047.119019 L 2282.257439 -1047.119019 Z M 2282.257439 -1029.443237 L 2264.581658 -1029.443237 L 2273.421501 -1020.603394 Z M 2291.097283 -1020.603394 L 2282.257439 -1011.76355 L 2273.417595 -1020.603394 L 2282.257439 -1029.443237 Z M 2291.097283 -1020.603394 L 2282.257439 -1011.76355 L 2291.097283 -1011.76355 Z M 2299.937126 -1020.603394 L 2299.937126 -1011.76355 L 2291.097283 -1011.76355 L 2291.097283 -1020.603394 Z M 2299.937126 -1020.603394 L 2299.937126 -1011.76355 L 2304.355095 -1016.185425 Z M 2303.597283 -1020.603394 L 2297.347283 -1014.353394 L 2291.097283 -1020.603394 L 2297.347283 -1026.853394 Z M 2309.847283 -1014.353394 L 2303.597283 -1008.103394 L 2309.847283 -1008.103394 Z M 2316.097283 -1008.103394 L 2303.597283 -1008.103394 L 2303.597283 -1020.603394 L 2316.097283 -1020.603394 Z M 2316.097283 -995.603394 L 2303.597283 -995.603394 L 2309.847283 -989.353394 Z M 2322.347283 -989.353394 L 2316.097283 -983.103394 L 2309.847283 -989.353394 L 2316.097283 -995.603394 Z M 2322.347283 -989.353394 L 2316.097283 -983.103394 L 2322.347283 -983.103394 Z M 2324.937126 -986.76355 L 2316.097283 -986.76355 L 2316.097283 -995.603394 L 2324.937126 -995.603394 Z M 2324.937126 -977.923706 L 2316.097283 -977.923706 L 2320.519158 -973.505737 Z M 2324.937126 -961.76355 L 2312.437126 -974.26355 L 2324.937126 -986.76355 L 2337.437126 -974.26355 Z M 2312.437126 -949.26355 L 2299.937126 -961.76355 L 2299.937126 -949.26355 Z M 2312.437126 -936.76355 L 2299.937126 -936.76355 L 2299.937126 -949.26355 L 2312.437126 -949.26355 Z M 2312.437126 -936.76355 L 2299.937126 -936.76355 L 2306.187126 -930.51355 Z M 2318.687126 -930.51355 L 2312.437126 -924.26355 L 2306.187126 -930.51355 L 2312.437126 -936.76355 Z M 2318.687126 -930.51355 L 2312.437126 -924.26355 L 2318.687126 -924.26355 Z M 2321.27697 -927.923706 L 2312.437126 -927.923706 L 2312.437126 -936.76355 L 2321.27697 -936.76355 Z M 2321.27697 -919.087769 L 2312.437126 -919.087769 L 2316.855095 -914.665894 Z M 2321.27697 -910.247925 L 2312.437126 -919.087769 L 2321.27697 -927.927612 L 2330.116814 -919.087769 Z M 2312.437126 -901.408081 L 2303.597283 -910.247925 L 2303.597283 -901.408081 Z M 2312.437126 -892.568237 L 2303.597283 -892.568237 L 2303.597283 -901.408081 L 2312.437126 -901.408081 Z M 2312.437126 -892.568237 L 2303.597283 -892.568237 L 2308.019158 -888.150269 Z M 2312.437126 -888.908081 L 2306.187126 -895.158081 L 2312.437126 -901.408081 L 2318.687126 -895.158081 Z M 2306.187126 -882.658081 L 2299.937126 -888.908081 L 2299.937126 -882.658081 Z M 2277.081658 -853.552612 L 2277.081658 -888.908081 L 2312.437126 -888.908081 L 2312.437126 -853.552612 Z M 2241.726189 -853.552612 L 2241.726189 -888.908081 L 2224.050408 -871.2323 Z M 2224.050408 -835.876831 L 2206.374626 -853.552612 L 2224.050408 -871.228394 L 2241.726189 -853.552612 Z M 2224.050408 -835.876831 L 2206.37072 -853.552612 L 2206.37072 -835.876831 Z M 2224.050408 -818.197144 L 2206.374626 -818.197144 L 2206.374626 -835.872925 L 2224.050408 -835.872925 Z M 2224.050408 -818.197144 L 2206.37072 -818.197144 L 2215.210564 -809.3573 Z M 2232.886345 -809.3573 L 2224.046501 -800.517456 L 2215.206658 -809.3573 L 2224.046501 -818.197144 Z M 2232.886345 -809.3573 L 2224.050408 -800.521362 L 2232.886345 -800.521362 Z M 2241.726189 -809.3573 L 2241.726189 -800.517456 L 2232.886345 -800.517456 L 2232.886345 -809.3573 Z M 2241.726189 -809.3573 L 2241.726189 -800.521362 L 2246.144158 -804.939331 Z M 2245.386345 -809.3573 L 2239.136345 -803.1073 L 2232.886345 -809.3573 L 2239.136345 -815.6073 Z M 2251.636345 -803.1073 L 2245.386345 -796.8573 L 2251.636345 -796.8573 Z M 2257.886345 -796.8573 L 2245.386345 -796.8573 L 2245.386345 -809.3573 L 2257.886345 -809.3573 Z M 2257.886345 -784.3573 L 2245.386345 -784.3573 L 2251.636345 -778.1073 Z M 2264.136345 -778.1073 L 2257.886345 -771.8573 L 2251.636345 -778.1073 L 2257.886345 -784.3573 Z M 2264.136345 -778.1073 L 2257.886345 -771.8573 L 2264.136345 -771.8573 Z M 2266.726189 -775.521362 L 2257.886345 -775.521362 L 2257.886345 -784.361206 L 2266.726189 -784.361206 Z M 2266.726189 -766.681519 L 2257.886345 -766.681519 L 2262.30822 -762.26355 Z M 2266.726189 -750.521362 L 2254.226189 -763.021362 L 2266.726189 -775.521362 L 2279.226189 -763.021362 Z M 2254.226189 -738.021362 L 2241.726189 -750.521362 L 2241.726189 -738.021362 Z M 2254.226189 -725.521362 L 2241.726189 -725.521362 L 2241.726189 -738.021362 L 2254.226189 -738.021362 Z M 2254.226189 -725.521362 L 2241.726189 -725.521362 L 2247.976189 -719.271362 Z M 2260.476189 -719.271362 L 2254.226189 -713.021362 L 2247.976189 -719.271362 L 2254.226189 -725.521362 Z M 2260.476189 -719.271362 L 2254.226189 -713.021362 L 2260.476189 -713.021362 Z M 2263.066033 -716.681519 L 2254.226189 -716.681519 L 2254.226189 -725.521362 L 2263.066033 -725.521362 Z M 2263.066033 -707.841675 L 2254.226189 -707.841675 L 2258.644158 -703.423706 Z M 2263.066033 -699.005737 L 2254.226189 -707.845581 L 2263.066033 -716.685425 L 2271.905876 -707.845581 Z M 2254.226189 -690.165894 L 2245.386345 -699.005737 L 2245.386345 -690.165894 Z M 2254.226189 -681.32605 L 2245.386345 -681.32605 L 2245.386345 -690.165894 L 2254.226189 -690.165894 Z M 2254.226189 -681.32605 L 2245.386345 -681.32605 L 2249.80822 -676.908081 Z M 2254.226189 -677.665894 L 2247.976189 -683.915894 L 2254.226189 -690.165894 L 2260.476189 -683.915894 Z M 2247.976189 -671.415894 L 2241.726189 -677.665894 L 2241.726189 -671.415894 Z M 2229.226189 -652.665894 L 2229.226189 -677.665894 L 2254.226189 -677.665894 L 2254.226189 -652.665894 Z M 2204.226189 -652.665894 L 2204.226189 -677.665894 L 2191.726189 -665.165894 Z M 2191.726189 -640.165894 L 2179.226189 -652.665894 L 2191.726189 -665.165894 L 2204.226189 -652.665894 Z M 2191.726189 -640.165894 L 2179.226189 -652.665894 L 2179.226189 -640.165894 Z M 2191.726189 -627.665894 L 2179.226189 -627.665894 L 2179.226189 -640.165894 L 2191.726189 -640.165894 Z M 2191.726189 -627.665894 L 2179.226189 -627.665894 L 2185.476189 -621.415894 Z M 2197.976189 -621.415894 L 2191.726189 -615.165894 L 2185.476189 -621.415894 L 2191.726189 -627.665894 Z M 2197.976189 -621.415894 L 2191.726189 -615.165894 L 2197.976189 -615.165894 Z M 2200.566033 -618.82605 L 2191.726189 -618.82605 L 2191.726189 -627.665894 L 2200.566033 -627.665894 Z M 2200.566033 -609.986206 L 2191.726189 -609.986206 L 2196.144158 -605.568237 Z M 2200.566033 -601.150269 L 2191.726189 -609.990112 L 2200.566033 -618.829956 L 2209.405876 -609.990112 Z M 2191.726189 -592.310425 L 2182.886345 -601.150269 L 2182.886345 -592.310425 Z M 2191.726189 -583.470581 L 2182.886345 -583.470581 L 2182.886345 -592.310425 L 2191.726189 -592.310425 Z M 2191.726189 -583.470581 L 2182.886345 -583.470581 L 2187.30822 -579.052612 Z M 2191.726189 -579.810425 L 2185.476189 -586.060425 L 2191.726189 -592.310425 L 2197.976189 -586.060425 Z M 2185.476189 -573.560425 L 2179.226189 -579.810425 L 2179.226189 -573.560425 Z M 2174.050408 -562.130737 L 2174.050408 -579.806519 L 2191.726189 -579.806519 L 2191.726189 -562.130737 Z M 2156.37072 -562.130737 L 2156.37072 -579.810425 L 2147.530876 -570.970581 Z M 2147.530876 -553.2948 L 2138.691033 -562.134644 L 2147.530876 -570.974487 L 2156.37072 -562.134644 Z M 2147.530876 -553.2948 L 2138.694939 -562.130737 L 2138.694939 -553.2948 Z M 2147.530876 -544.454956 L 2138.691033 -544.454956 L 2138.691033 -553.2948 L 2147.530876 -553.2948 Z M 2147.530876 -544.454956 L 2138.694939 -544.454956 L 2143.112908 -540.033081 Z M 2147.530876 -540.7948 L 2141.280876 -547.0448 L 2147.530876 -553.2948 L 2153.780876 -547.0448 Z M 2141.280876 -534.5448 L 2135.030876 -540.7948 L 2135.030876 -534.5448 Z M 2135.030876 -528.2948 L 2135.030876 -540.7948 L 2147.530876 -540.7948 L 2147.530876 -528.2948 Z M 2122.530876 -528.2948 L 2122.530876 -540.7948 L 2116.280876 -534.5448 Z M 2116.280876 -522.0448 L 2110.030876 -528.2948 L 2116.280876 -534.5448 L 2122.530876 -528.2948 Z M 2116.280876 -522.0448 L 2110.030876 -528.2948 L 2110.030876 -522.0448 Z M 2113.694939 -519.454956 L 2113.694939 -528.2948 L 2122.534783 -528.2948 L 2122.534783 -519.454956 Z M 2104.855095 -519.454956 L 2104.855095 -528.2948 L 2100.43322 -523.872925 Z M 2042.984001 -519.454956 L 2078.33947 -554.810425 L 2113.694939 -519.454956 L 2078.33947 -484.099487 Z M 2007.628533 -554.810425 L 2042.984001 -590.165894 L 2007.628533 -590.165894 Z M 1972.273064 -554.810425 L 1972.273064 -590.165894 L 2007.628533 -590.165894 L 2007.628533 -554.810425 Z M 1972.273064 -554.810425 L 1972.273064 -590.165894 L 1954.593376 -572.486206 Z M 1954.593376 -537.130737 L 1936.917595 -554.806519 L 1954.593376 -572.4823 L 1972.269158 -554.806519 Z M 1954.593376 -537.130737 L 1936.917595 -554.810425 L 1936.917595 -537.130737 Z M 1954.593376 -519.454956 L 1936.917595 -519.454956 L 1936.917595 -537.130737 L 1954.593376 -537.130737 Z M 1954.593376 -519.454956 L 1936.917595 -519.454956 L 1945.753533 -510.615112 Z M 1963.43322 -510.615112 L 1954.593376 -501.775269 L 1945.753533 -510.615112 L 1954.593376 -519.454956 Z M 1963.43322 -510.615112 L 1954.593376 -501.775269 L 1963.43322 -501.775269 Z M 1972.273064 -510.615112 L 1972.273064 -501.775269 L 1963.43322 -501.775269 L 1963.43322 -510.615112 Z M 1972.273064 -510.615112 L 1972.273064 -501.775269 L 1976.691033 -506.197144 Z M 1975.93322 -510.615112 L 1969.68322 -504.365112 L 1963.43322 -510.615112 L 1969.68322 -516.865112 Z M 1982.18322 -504.365112 L 1975.93322 -498.115112 L 1982.18322 -498.115112 Z M 1988.43322 -498.115112 L 1975.93322 -498.115112 L 1975.93322 -510.615112 L 1988.43322 -510.615112 Z M 1988.43322 -485.615112 L 1975.93322 -485.615112 L 1982.18322 -479.365112 Z M 1994.68322 -479.365112 L 1988.43322 -473.115112 L 1982.18322 -479.365112 L 1988.43322 -485.615112 Z M 1994.68322 -479.365112 L 1988.43322 -473.115112 L 1994.68322 -473.115112 Z M 1997.273064 -476.775269 L 1988.43322 -476.775269 L 1988.43322 -485.615112 L 1997.273064 -485.615112 Z M 1997.273064 -467.939331 L 1988.43322 -467.939331 L 1992.851189 -463.517456 Z M 1997.273064 -451.775269 L 1984.773064 -464.275269 L 1997.273064 -476.775269 L 2009.773064 -464.275269 Z M 1984.773064 -439.275269 L 1972.273064 -451.775269 L 1972.273064 -439.275269 Z M 1984.773064 -426.775269 L 1972.273064 -426.775269 L 1972.273064 -439.275269 L 1984.773064 -439.275269 Z M 1984.773064 -426.775269 L 1972.273064 -426.775269 L 1978.523064 -420.525269 Z M 1991.023064 -420.525269 L 1984.773064 -414.275269 L 1978.523064 -420.525269 L 1984.773064 -426.775269 Z M 1991.023064 -420.525269 L 1984.773064 -414.275269 L 1991.023064 -414.275269 Z M 1993.609001 -417.939331 L 1984.769158 -417.939331 L 1984.769158 -426.779175 L 1993.609001 -426.779175 Z M 1993.609001 -409.099487 L 1984.773064 -409.099487 L 1989.191033 -404.681519 Z M 1993.609001 -400.259644 L 1984.769158 -409.099487 L 1993.609001 -417.939331 L 2002.448845 -409.099487 Z M 1984.773064 -391.4198 L 1975.93322 -400.259644 L 1975.93322 -391.4198 Z M 1984.773064 -382.583862 L 1975.93322 -382.583862 L 1975.93322 -391.423706 L 1984.773064 -391.423706 Z M 1984.773064 -382.583862 L 1975.93322 -382.583862 L 1980.351189 -378.161987 Z M 1984.773064 -378.9198 L 1978.523064 -385.1698 L 1984.773064 -391.4198 L 1991.023064 -385.1698 Z M 1978.523064 -372.6698 L 1972.273064 -378.9198 L 1972.273064 -372.6698 Z M 1959.773064 -353.9198 L 1959.773064 -378.9198 L 1984.773064 -378.9198 L 1984.773064 -353.9198 Z M 1934.773064 -353.9198 L 1934.773064 -378.9198 L 1922.273064 -366.4198 Z M 1922.273064 -341.4198 L 1909.773064 -353.9198 L 1922.273064 -366.4198 L 1934.773064 -353.9198 Z M 1922.273064 -341.4198 L 1909.773064 -353.9198 L 1909.773064 -341.4198 Z M 1922.273064 -328.9198 L 1909.773064 -328.9198 L 1909.773064 -341.4198 L 1922.273064 -341.4198 Z M 1922.273064 -328.9198 L 1909.773064 -328.9198 L 1916.023064 -322.6698 Z M 1928.523064 -322.6698 L 1922.273064 -316.4198 L 1916.023064 -322.6698 L 1922.273064 -328.9198 Z M 1928.523064 -322.6698 L 1922.273064 -316.4198 L 1928.523064 -316.4198 Z M 1931.109001 -320.083862 L 1922.269158 -320.083862 L 1922.269158 -328.923706 L 1931.109001 -328.923706 Z M 1931.109001 -311.244019 L 1922.273064 -311.244019 L 1926.691033 -306.82605 Z M 1931.109001 -302.404175 L 1922.269158 -311.244019 L 1931.109001 -320.083862 L 1939.948845 -311.244019 Z M 1922.273064 -293.564331 L 1913.43322 -302.404175 L 1913.43322 -293.564331 Z M 1922.273064 -284.728394 L 1913.43322 -284.728394 L 1913.43322 -293.568237 L 1922.273064 -293.568237 Z M 1922.273064 -284.728394 L 1913.43322 -284.728394 L 1917.851189 -280.306519 Z M 1922.273064 -281.064331 L 1916.023064 -287.314331 L 1922.273064 -293.564331 L 1928.523064 -287.314331 Z M 1916.023064 -274.814331 L 1909.773064 -281.064331 L 1909.773064 -274.814331 Z M 1904.593376 -263.38855 L 1904.593376 -281.064331 L 1922.269158 -281.064331 L 1922.269158 -263.38855 Z M 1886.917595 -263.38855 L 1886.917595 -281.064331 L 1878.077751 -272.228394 Z M 1878.077751 -254.548706 L 1869.237908 -263.38855 L 1878.077751 -272.228394 L 1886.917595 -263.38855 Z M 1878.077751 -254.548706 L 1869.237908 -263.38855 L 1869.237908 -254.548706 Z M 1878.077751 -245.708862 L 1869.237908 -245.708862 L 1869.237908 -254.548706 L 1878.077751 -254.548706 Z M 1878.077751 -245.708862 L 1869.237908 -245.708862 L 1873.659783 -241.290894 Z M 1878.077751 -242.048706 L 1871.827751 -248.298706 L 1878.077751 -254.548706 L 1884.327751 -248.298706 Z M 1871.827751 -235.798706 L 1865.577751 -242.048706 L 1865.577751 -235.798706 Z M 1865.577751 -229.548706 L 1865.577751 -242.048706 L 1878.077751 -242.048706 L 1878.077751 -229.548706 Z M 1853.077751 -229.548706 L 1853.077751 -242.048706 L 1846.827751 -235.798706 Z M 1846.827751 -223.298706 L 1840.577751 -229.548706 L 1846.827751 -235.798706 L 1853.077751 -229.548706 Z M 1846.827751 -223.298706 L 1840.577751 -229.548706 L 1840.577751 -223.298706 Z M 1844.237908 -220.708862 L 1844.237908 -229.548706 L 1853.077751 -229.548706 L 1853.077751 -220.708862 Z M 1835.398064 -220.708862 L 1835.398064 -229.548706 L 1830.980095 -225.130737 Z M 1794.237908 -220.708862 L 1819.237908 -245.708862 L 1844.237908 -220.708862 L 1819.237908 -195.708862 Z M 1769.237908 -245.708862 L 1794.237908 -270.708862 L 1769.237908 -270.708862 Z M 1744.237908 -245.708862 L 1744.237908 -270.708862 L 1769.237908 -270.708862 L 1769.237908 -245.708862 Z M 1744.237908 -245.708862 L 1744.237908 -270.708862 L 1731.737908 -258.208862 Z M 1731.737908 -233.208862 L 1719.237908 -245.708862 L 1731.737908 -258.208862 L 1744.237908 -245.708862 Z M 1731.737908 -233.208862 L 1719.237908 -245.708862 L 1719.237908 -233.208862 Z M 1731.737908 -220.708862 L 1719.237908 -220.708862 L 1719.237908 -233.208862 L 1731.737908 -233.208862 Z M 1731.737908 -220.708862 L 1719.237908 -220.708862 L 1725.487908 -214.458862 Z M 1737.987908 -214.458862 L 1731.737908 -208.208862 L 1725.487908 -214.458862 L 1731.737908 -220.708862 Z M 1737.987908 -214.458862 L 1731.737908 -208.208862 L 1737.987908 -208.208862 Z M 1740.577751 -211.872925 L 1731.737908 -211.872925 L 1731.737908 -220.712769 L 1740.577751 -220.712769 Z M 1740.577751 -203.033081 L 1731.737908 -203.033081 L 1736.159783 -198.615112 Z M 1740.577751 -194.193237 L 1731.737908 -203.033081 L 1740.577751 -211.872925 L 1749.417595 -203.033081 Z M 1731.737908 -185.353394 L 1722.898064 -194.193237 L 1722.898064 -185.353394 Z M 1731.737908 -176.517456 L 1722.898064 -176.517456 L 1722.898064 -185.3573 L 1731.737908 -185.3573 Z M 1731.737908 -176.517456 L 1722.898064 -176.517456 L 1727.319939 -172.095581 Z M 1731.737908 -172.853394 L 1725.487908 -179.103394 L 1731.737908 -185.353394 L 1737.987908 -179.103394 Z M 1725.487908 -166.603394 L 1719.237908 -172.853394 L 1719.237908 -166.603394 Z M 1714.062126 -155.177612 L 1714.062126 -172.853394 L 1731.737908 -172.853394 L 1731.737908 -155.177612 Z M 1696.382439 -155.177612 L 1696.382439 -172.853394 L 1687.546501 -164.017456 Z M 1687.546501 -146.337769 L 1678.706658 -155.177612 L 1687.546501 -164.017456 L 1696.386345 -155.177612 Z M 1687.546501 -146.337769 L 1678.706658 -155.177612 L 1678.706658 -146.337769 Z M 1687.546501 -137.501831 L 1678.706658 -137.501831 L 1678.706658 -146.341675 L 1687.546501 -146.341675 Z M 1687.546501 -137.501831 L 1678.706658 -137.501831 L 1683.124626 -133.079956 Z M 1687.546501 -133.837769 L 1681.296501 -140.087769 L 1687.546501 -146.337769 L 1693.796501 -140.087769 Z M 1681.296501 -127.587769 L 1675.046501 -133.837769 L 1675.046501 -127.587769 Z M 1675.046501 -121.337769 L 1675.046501 -133.837769 L 1687.546501 -133.837769 L 1687.546501 -121.337769 Z M 1662.546501 -121.337769 L 1662.546501 -133.837769 L 1656.296501 -127.587769 Z M 1656.296501 -115.087769 L 1650.046501 -121.337769 L 1656.296501 -127.587769 L 1662.546501 -121.337769 Z M 1656.296501 -115.087769 L 1650.046501 -121.337769 L 1650.046501 -115.087769 Z M 1653.706658 -112.501831 L 1653.706658 -121.341675 L 1662.546501 -121.341675 L 1662.546501 -112.501831 Z M 1644.866814 -112.501831 L 1644.866814 -121.337769 L 1640.448845 -116.9198 Z M 1618.351189 -112.501831 L 1636.02697 -130.177612 L 1653.702751 -112.501831 L 1636.02697 -94.82605 Z M 1600.671501 -130.177612 L 1618.351189 -147.853394 L 1600.671501 -147.853394 Z M 1582.99572 -130.177612 L 1582.99572 -147.853394 L 1600.671501 -147.853394 L 1600.671501 -130.177612 Z M 1582.99572 -130.177612 L 1582.99572 -147.853394 L 1574.155876 -139.017456 Z M 1574.155876 -121.337769 L 1565.316033 -130.177612 L 1574.155876 -139.017456 L 1582.99572 -130.177612 Z M 1574.155876 -121.337769 L 1565.316033 -130.177612 L 1565.316033 -121.337769 Z M 1574.155876 -112.501831 L 1565.316033 -112.501831 L 1565.316033 -121.341675 L 1574.155876 -121.341675 Z M 1574.155876 -112.501831 L 1565.316033 -112.501831 L 1569.737908 -108.079956 Z M 1574.155876 -108.837769 L 1567.905876 -115.087769 L 1574.155876 -121.337769 L 1580.405876 -115.087769 Z M 1567.905876 -102.587769 L 1561.655876 -108.837769 L 1561.655876 -102.587769 Z M 1561.655876 -96.337769 L 1561.655876 -108.837769 L 1574.155876 -108.837769 L 1574.155876 -96.337769 Z M 1549.155876 -96.337769 L 1549.155876 -108.837769 L 1542.905876 -102.587769 Z M 1542.905876 -90.087769 L 1536.655876 -96.337769 L 1542.905876 -102.587769 L 1549.155876 -96.337769 Z M 1542.905876 -90.087769 L 1536.655876 -96.337769 L 1536.655876 -90.087769 Z M 1540.316033 -87.501831 L 1540.316033 -96.341675 L 1549.155876 -96.341675 L 1549.155876 -87.501831 Z M 1531.480095 -87.501831 L 1531.480095 -96.337769 L 1527.05822 -91.9198 Z M 1515.316033 -87.501831 L 1527.816033 -100.001831 L 1540.316033 -87.501831 L 1527.816033 -75.001831 Z M 1502.816033 -100.001831 L 1515.316033 -112.501831 L 1502.816033 -112.501831 Z M 1490.316033 -100.001831 L 1490.316033 -112.501831 L 1502.816033 -112.501831 L 1502.816033 -100.001831 Z M 1490.316033 -100.001831 L 1490.316033 -112.501831 L 1484.066033 -106.251831 Z M 1484.066033 -93.751831 L 1477.816033 -100.001831 L 1484.066033 -106.251831 L 1490.316033 -100.001831 Z M 1484.066033 -93.751831 L 1477.816033 -100.001831 L 1477.816033 -93.751831 Z M 1481.480095 -91.161987 L 1481.480095 -100.001831 L 1490.319939 -100.001831 L 1490.319939 -91.161987 Z M 1472.640251 -91.161987 L 1472.640251 -100.001831 L 1468.222283 -95.579956 Z M 1463.800408 -91.161987 L 1472.640251 -100.001831 L 1481.480095 -91.161987 L 1472.640251 -82.322144 Z M 1454.960564 -100.001831 L 1463.800408 -108.837769 L 1454.960564 -108.837769 Z M 1446.124626 -100.001831 L 1446.124626 -108.841675 L 1454.96447 -108.841675 L 1454.96447 -100.001831 Z M 1446.124626 -100.001831 L 1446.124626 -108.837769 L 1441.702751 -104.4198 Z M 1442.460564 -100.001831 L 1448.710564 -106.251831 L 1454.960564 -100.001831 L 1448.710564 -93.751831 Z M 1436.210564 -106.251831 L 1442.460564 -112.501831 L 1436.210564 -112.501831 Z M 1371.749626 -170.708862 L 1442.460564 -170.708862 L 1442.460564 -99.997925 L 1371.749626 -99.997925 Z M 1371.749626 -241.4198 L 1442.460564 -241.4198 L 1407.105095 -276.775269 Z M 1336.394158 -276.775269 L 1371.749626 -312.130737 L 1407.105095 -276.775269 L 1371.749626 -241.4198 Z M 1336.394158 -276.775269 L 1371.749626 -312.130737 L 1336.394158 -312.130737 Z M 1301.042595 -276.775269 L 1301.042595 -312.130737 L 1336.398064 -312.130737 L 1336.398064 -276.775269 Z M 1301.042595 -276.775269 L 1301.042595 -312.130737 L 1283.362908 -294.454956 Z M 1283.362908 -259.099487 L 1265.687126 -276.775269 L 1283.362908 -294.45105 L 1301.038689 -276.775269 Z M 1283.362908 -259.099487 L 1265.687126 -276.775269 L 1265.687126 -259.099487 Z M 1283.362908 -241.4198 L 1265.687126 -241.4198 L 1265.687126 -259.095581 L 1283.362908 -259.095581 Z M 1283.362908 -241.4198 L 1265.687126 -241.4198 L 1274.523064 -232.583862 Z M 1292.202751 -232.583862 L 1283.362908 -223.744019 L 1274.523064 -232.583862 L 1283.362908 -241.423706 Z M 1292.202751 -232.583862 L 1283.362908 -223.744019 L 1292.202751 -223.744019 Z M 1301.042595 -232.583862 L 1301.042595 -223.744019 L 1292.202751 -223.744019 L 1292.202751 -232.583862 Z M 1301.042595 -232.583862 L 1301.042595 -223.744019 L 1305.460564 -228.161987 Z M 1304.702751 -232.583862 L 1298.452751 -226.333862 L 1292.202751 -232.583862 L 1298.452751 -238.833862 Z M 1310.952751 -226.333862 L 1304.702751 -220.083862 L 1310.952751 -220.083862 Z M 1317.202751 -220.083862 L 1304.702751 -220.083862 L 1304.702751 -232.583862 L 1317.202751 -232.583862 Z M 1317.202751 -207.583862 L 1304.702751 -207.583862 L 1310.952751 -201.333862 Z M 1323.452751 -201.333862 L 1317.202751 -195.083862 L 1310.952751 -201.333862 L 1317.202751 -207.583862 Z M 1323.452751 -201.333862 L 1317.202751 -195.083862 L 1323.452751 -195.083862 Z M 1326.042595 -198.744019 L 1317.202751 -198.744019 L 1317.202751 -207.583862 L 1326.042595 -207.583862 Z M 1326.042595 -189.904175 L 1317.202751 -189.904175 L 1321.62072 -185.486206 Z M 1326.042595 -173.744019 L 1313.542595 -186.244019 L 1326.042595 -198.744019 L 1338.542595 -186.244019 Z M 1313.542595 -161.244019 L 1301.042595 -173.744019 L 1301.042595 -161.244019 Z M 1313.542595 -148.744019 L 1301.042595 -148.744019 L 1301.042595 -161.244019 L 1313.542595 -161.244019 Z M 1313.542595 -148.744019 L 1301.042595 -148.744019 L 1307.292595 -142.494019 Z M 1319.792595 -142.494019 L 1313.542595 -136.244019 L 1307.292595 -142.494019 L 1313.542595 -148.744019 Z M 1319.792595 -142.494019 L 1313.542595 -136.244019 L 1319.792595 -136.244019 Z M 1322.378533 -139.904175 L 1313.538689 -139.904175 L 1313.538689 -148.744019 L 1322.378533 -148.744019 Z M 1322.378533 -131.064331 L 1313.542595 -131.064331 L 1317.960564 -126.646362 Z M 1322.378533 -122.228394 L 1313.538689 -131.068237 L 1322.378533 -139.908081 L 1331.218376 -131.068237 Z M 1313.542595 -113.38855 L 1304.702751 -122.228394 L 1304.702751 -113.38855 Z M 1313.542595 -104.548706 L 1304.702751 -104.548706 L 1304.702751 -113.38855 L 1313.542595 -113.38855 Z M 1313.542595 -104.548706 L 1304.702751 -104.548706 L 1309.12072 -100.130737 Z M 1313.542595 -100.88855 L 1307.292595 -107.13855 L 1313.542595 -113.38855 L 1319.792595 -107.13855 Z M 1307.292595 -94.63855 L 1301.042595 -100.88855 L 1301.042595 -94.63855 Z M 1288.542595 -75.88855 L 1288.542595 -100.88855 L 1313.542595 -100.88855 L 1313.542595 -75.88855 Z M 1263.542595 -75.88855 L 1263.542595 -100.88855 L 1251.042595 -88.38855 Z M 1251.042595 -63.38855 L 1238.542595 -75.88855 L 1251.042595 -88.38855 L 1263.542595 -75.88855 Z M 1251.042595 -63.38855 L 1238.542595 -75.88855 L 1238.542595 -63.38855 Z M 1251.042595 -50.88855 L 1238.542595 -50.88855 L 1238.542595 -63.38855 L 1251.042595 -63.38855 Z M 1251.042595 -50.88855 L 1238.542595 -50.88855 L 1244.792595 -44.63855 Z M 1257.292595 -44.63855 L 1251.042595 -38.38855 L 1244.792595 -44.63855 L 1251.042595 -50.88855 Z M 1257.292595 -44.63855 L 1251.042595 -38.38855 L 1257.292595 -38.38855 Z M 1259.878533 -42.048706 L 1251.038689 -42.048706 L 1251.038689 -50.88855 L 1259.878533 -50.88855 Z M 1259.878533 -33.208862 L 1251.042595 -33.208862 L 1255.460564 -28.790894 Z M 1259.878533 -24.372925 L 1251.038689 -33.212769 L 1259.878533 -42.052612 L 1268.718376 -33.212769 Z M 1251.042595 -15.533081 L 1242.202751 -24.372925 L 1242.202751 -15.533081 Z M 1251.042595 -6.693237 L 1242.202751 -6.693237 L 1242.202751 -15.533081 L 1251.042595 -15.533081 Z M 1251.042595 -6.693237 L 1242.202751 -6.693237 L 1246.62072 -2.275269 Z M 1251.042595 -3.033081 L 1244.792595 -9.283081 L 1251.042595 -15.533081 L 1257.292595 -9.283081 Z M 1244.792595 3.216919 L 1238.542595 -3.033081 L 1238.542595 3.216919 Z M 1233.362908 14.646606 L 1233.362908 -3.029175 L 1251.038689 -3.029175 L 1251.038689 14.646606 Z M 1215.687126 14.646606 L 1215.687126 -3.033081 L 1206.847283 5.806763 Z M 1206.847283 23.482544 L 1198.007439 14.6427 L 1206.847283 5.802856 L 1215.687126 14.6427 Z M 1206.847283 23.482544 L 1198.007439 14.646606 L 1198.007439 23.482544 Z M 1206.847283 32.322388 L 1198.007439 32.322388 L 1198.007439 23.482544 L 1206.847283 23.482544 Z M 1206.847283 32.322388 L 1198.007439 32.322388 L 1202.425408 36.740356 Z M 1206.847283 35.982544 L 1200.597283 29.732544 L 1206.847283 23.482544 L 1213.097283 29.732544 Z M 1200.597283 42.232544 L 1194.347283 35.982544 L 1194.347283 42.232544 Z M 1194.347283 48.482544 L 1194.347283 35.982544 L 1206.847283 35.982544 L 1206.847283 48.482544 Z M 1181.847283 48.482544 L 1181.847283 35.982544 L 1175.597283 42.232544 Z M 1175.597283 54.732544 L 1169.347283 48.482544 L 1175.597283 42.232544 L 1181.847283 48.482544 Z M 1175.597283 54.732544 L 1169.347283 48.482544 L 1169.347283 54.732544 Z M 1173.007439 57.322388 L 1173.007439 48.482544 L 1181.847283 48.482544 L 1181.847283 57.322388 Z M 1164.167595 57.322388 L 1164.167595 48.482544 L 1159.749626 52.904419 Z M 1123.007439 57.322388 L 1148.007439 32.322388 L 1173.007439 57.322388 L 1148.007439 82.322388 Z M 1098.007439 32.322388 L 1123.007439 7.322388 L 1098.007439 7.322388 Z M 1073.007439 32.322388 L 1073.007439 7.322388 L 1098.007439 7.322388 L 1098.007439 32.322388 Z M 1073.007439 32.322388 L 1073.007439 7.322388 L 1060.507439 19.822388 Z M 1060.507439 44.822388 L 1048.007439 32.322388 L 1060.507439 19.822388 L 1073.007439 32.322388 Z M 1060.507439 44.822388 L 1048.007439 32.322388 L 1048.007439 44.822388 Z M 1060.507439 57.322388 L 1048.007439 57.322388 L 1048.007439 44.822388 L 1060.507439 44.822388 Z M 1060.507439 57.322388 L 1048.007439 57.322388 L 1054.257439 63.572388 Z M 1066.757439 63.572388 L 1060.507439 69.822388 L 1054.257439 63.572388 L 1060.507439 57.322388 Z M 1066.757439 63.572388 L 1060.507439 69.822388 L 1066.757439 69.822388 Z M 1069.347283 66.162231 L 1060.507439 66.162231 L 1060.507439 57.322388 L 1069.347283 57.322388 Z M 1069.347283 74.998169 L 1060.507439 74.998169 L 1064.925408 79.420044 Z M 1069.347283 83.838013 L 1060.507439 74.998169 L 1069.347283 66.158325 L 1078.187126 74.998169 Z M 1060.507439 92.677856 L 1051.667595 83.838013 L 1051.667595 92.677856 Z M 1060.507439 101.5177 L 1051.667595 101.5177 L 1051.667595 92.677856 L 1060.507439 92.677856 Z M 1060.507439 101.5177 L 1051.667595 101.5177 L 1056.08947 105.935669 Z M 1060.507439 105.177856 L 1054.257439 98.927856 L 1060.507439 92.677856 L 1066.757439 98.927856 Z M 1054.257439 111.427856 L 1048.007439 105.177856 L 1048.007439 111.427856 Z M 1042.831658 122.853638 L 1042.831658 105.177856 L 1060.507439 105.177856 L 1060.507439 122.853638 Z M 1025.15197 122.853638 L 1025.15197 105.177856 L 1016.312126 114.0177 Z M 1016.312126 131.693481 L 1007.472283 122.853638 L 1016.312126 114.013794 L 1025.15197 122.853638 Z M 1016.312126 131.693481 L 1007.476189 122.853638 L 1007.476189 131.693481 Z M 1016.312126 140.533325 L 1007.472283 140.533325 L 1007.472283 131.693481 L 1016.312126 131.693481 Z M 1016.312126 140.533325 L 1007.476189 140.533325 L 1011.894158 144.951294 Z M 1016.312126 144.193481 L 1010.062126 137.943481 L 1016.312126 131.693481 L 1022.562126 137.943481 Z M 1010.062126 150.443481 L 1003.812126 144.193481 L 1003.812126 150.443481 Z M 1003.812126 156.693481 L 1003.812126 144.193481 L 1016.312126 144.193481 L 1016.312126 156.693481 Z M 991.312126 156.693481 L 991.312126 144.193481 L 985.062126 150.443481 Z M 985.062126 162.943481 L 978.812126 156.693481 L 985.062126 150.443481 L 991.312126 156.693481 Z M 985.062126 162.943481 L 978.812126 156.693481 L 978.812126 162.943481 Z M 982.476189 165.533325 L 982.476189 156.693481 L 991.316033 156.693481 L 991.316033 165.533325 Z M 973.636345 165.533325 L 973.636345 156.693481 L 969.218376 161.115356 Z M 947.12072 165.533325 L 964.796501 147.857544 L 982.472283 165.533325 L 964.796501 183.209106 Z M 929.441033 147.853638 L 947.12072 130.177856 L 929.441033 130.177856 Z M 911.765251 147.853638 L 911.765251 130.177856 L 929.441033 130.177856 L 929.441033 147.853638 Z M 911.765251 147.853638 L 911.765251 130.177856 L 902.925408 139.0177 Z M 902.925408 156.693481 L 894.085564 147.853638 L 902.925408 139.013794 L 911.765251 147.853638 Z M 902.925408 156.693481 L 894.085564 147.853638 L 894.085564 156.693481 Z M 902.925408 165.533325 L 894.085564 165.533325 L 894.085564 156.693481 L 902.925408 156.693481 Z M 902.925408 165.533325 L 894.085564 165.533325 L 898.507439 169.951294 Z M 902.925408 169.193481 L 896.675408 162.943481 L 902.925408 156.693481 L 909.175408 162.943481 Z M 896.675408 175.443481 L 890.425408 169.193481 L 890.425408 175.443481 Z M 890.425408 181.693481 L 890.425408 169.193481 L 902.925408 169.193481 L 902.925408 181.693481 Z M 877.925408 181.693481 L 877.925408 169.193481 L 871.675408 175.443481 Z M 871.675408 187.943481 L 865.425408 181.693481 L 871.675408 175.443481 L 877.925408 181.693481 Z M 871.675408 187.943481 L 865.425408 181.693481 L 865.425408 187.943481 Z M 869.085564 190.533325 L 869.085564 181.693481 L 877.925408 181.693481 L 877.925408 190.533325 Z M 860.24572 190.533325 L 860.24572 181.693481 L 855.827751 186.115356 Z M 844.085564 190.533325 L 856.585564 178.033325 L 869.085564 190.533325 L 856.585564 203.033325 Z M 831.585564 178.033325 L 844.085564 165.533325 L 831.585564 165.533325 Z M 819.085564 178.033325 L 819.085564 165.533325 L 831.585564 165.533325 L 831.585564 178.033325 Z M 819.085564 178.033325 L 819.085564 165.533325 L 812.835564 171.783325 Z M 812.835564 184.283325 L 806.585564 178.033325 L 812.835564 171.783325 L 819.085564 178.033325 Z M 812.835564 184.283325 L 806.585564 178.033325 L 806.585564 184.283325 Z M 810.24572 186.873169 L 810.24572 178.033325 L 819.085564 178.033325 L 819.085564 186.873169 Z M 801.409783 186.873169 L 801.409783 178.033325 L 796.987908 182.451294 Z M 792.569939 186.873169 L 801.409783 178.033325 L 810.249626 186.873169 L 801.409783 195.713013 Z M 783.730095 178.033325 L 792.569939 169.193481 L 783.730095 169.193481 Z M 774.894158 178.033325 L 774.894158 169.193481 L 783.734001 169.193481 L 783.734001 178.033325 Z M 774.894158 178.033325 L 774.894158 169.193481 L 770.472283 173.615356 Z M 771.230095 178.033325 L 777.480095 171.783325 L 783.730095 178.033325 L 777.480095 184.283325 Z M 764.980095 171.783325 L 771.230095 165.533325 L 764.980095 165.533325 Z M 721.230095 128.033325 L 771.230095 128.033325 L 771.230095 178.033325 L 721.230095 178.033325 Z M 721.230095 78.033325 L 771.230095 78.033325 L 746.230095 53.033325 Z M 696.230095 53.033325 L 721.230095 28.033325 L 746.230095 53.033325 L 721.230095 78.033325 Z M 696.230095 53.033325 L 721.230095 28.033325 L 696.230095 28.033325 Z M 671.230095 53.033325 L 671.230095 28.033325 L 696.230095 28.033325 L 696.230095 53.033325 Z M 671.230095 53.033325 L 671.230095 28.033325 L 658.730095 40.533325 Z M 658.730095 65.533325 L 646.230095 53.033325 L 658.730095 40.533325 L 671.230095 53.033325 Z M 658.730095 65.533325 L 646.230095 53.033325 L 646.230095 65.533325 Z M 658.730095 78.033325 L 646.230095 78.033325 L 646.230095 65.533325 L 658.730095 65.533325 Z M 658.730095 78.033325 L 646.230095 78.033325 L 652.480095 84.283325 Z M 664.980095 84.283325 L 658.730095 90.533325 L 652.480095 84.283325 L 658.730095 78.033325 Z M 664.980095 84.283325 L 658.730095 90.533325 L 664.980095 90.533325 Z M 667.569939 86.873169 L 658.730095 86.873169 L 658.730095 78.033325 L 667.569939 78.033325 Z M 667.569939 95.709106 L 658.730095 95.709106 L 663.15197 100.130981 Z M 667.569939 104.54895 L 658.730095 95.709106 L 667.569939 86.869263 L 676.409783 95.709106 Z M 658.730095 113.388794 L 649.894158 104.54895 L 649.894158 113.388794 Z M 658.730095 122.228638 L 649.890251 122.228638 L 649.890251 113.388794 L 658.730095 113.388794 Z M 658.730095 122.228638 L 649.894158 122.228638 L 654.312126 126.646606 Z M 658.730095 125.888794 L 652.480095 119.638794 L 658.730095 113.388794 L 664.980095 119.638794 Z M 652.480095 132.138794 L 646.230095 125.888794 L 646.230095 132.138794 Z M 641.054314 143.564575 L 641.054314 125.888794 L 658.730095 125.888794 L 658.730095 143.564575 Z M 623.374626 143.564575 L 623.374626 125.888794 L 614.538689 134.728638 Z M 614.538689 152.404419 L 605.698845 143.564575 L 614.538689 134.724731 L 623.378533 143.564575 Z M 614.538689 152.404419 L 605.698845 143.564575 L 605.698845 152.404419 Z M 614.538689 161.244263 L 605.698845 161.244263 L 605.698845 152.404419 L 614.538689 152.404419 Z M 614.538689 161.244263 L 605.698845 161.244263 L 610.116814 165.662231 Z M 614.538689 164.904419 L 608.288689 158.654419 L 614.538689 152.404419 L 620.788689 158.654419 Z M 608.288689 171.154419 L 602.038689 164.904419 L 602.038689 171.154419 Z M 602.038689 177.404419 L 602.038689 164.904419 L 614.538689 164.904419 L 614.538689 177.404419 Z M 589.538689 177.404419 L 589.538689 164.904419 L 583.288689 171.154419 Z M 583.288689 183.654419 L 577.038689 177.404419 L 583.288689 171.154419 L 589.538689 177.404419 Z M 583.288689 183.654419 L 577.038689 177.404419 L 577.038689 183.654419 Z M 580.698845 186.244263 L 580.698845 177.404419 L 589.538689 177.404419 L 589.538689 186.244263 Z M 571.859001 186.244263 L 571.859001 177.404419 L 567.441033 181.822388 Z M 545.343376 186.244263 L 563.019158 168.568481 L 580.694939 186.244263 L 563.019158 203.920044 Z M 527.663689 168.564575 L 545.343376 150.888794 L 527.663689 150.888794 Z M 509.987908 168.564575 L 509.987908 150.888794 L 527.663689 150.888794 L 527.663689 168.564575 Z M 509.987908 168.564575 L 509.987908 150.888794 L 501.148064 159.728638 Z M 501.148064 177.404419 L 492.30822 168.564575 L 501.148064 159.724731 L 509.987908 168.564575 Z M 501.148064 177.404419 L 492.30822 168.564575 L 492.30822 177.404419 Z M 501.148064 186.244263 L 492.30822 186.244263 L 492.30822 177.404419 L 501.148064 177.404419 Z M 501.148064 186.244263 L 492.30822 186.244263 L 496.730095 190.662231 Z M 501.148064 189.904419 L 494.898064 183.654419 L 501.148064 177.404419 L 507.398064 183.654419 Z M 494.898064 196.154419 L 488.648064 189.904419 L 488.648064 196.154419 Z M 488.648064 202.404419 L 488.648064 189.904419 L 501.148064 189.904419 L 501.148064 202.404419 Z M 476.148064 202.404419 L 476.148064 189.904419 L 469.898064 196.154419 Z M 469.898064 208.654419 L 463.648064 202.404419 L 469.898064 196.154419 L 476.148064 202.404419 Z M 469.898064 208.654419 L 463.648064 202.404419 L 463.648064 208.654419 Z M 467.30822 211.244263 L 467.30822 202.404419 L 476.148064 202.404419 L 476.148064 211.244263 Z M 458.472283 211.244263 L 458.472283 202.404419 L 454.050408 206.822388 Z M 442.30822 211.244263 L 454.80822 198.744263 L 467.30822 211.244263 L 454.80822 223.744263 Z M 429.80822 198.744263 L 442.30822 186.244263 L 429.80822 186.244263 Z M 417.30822 198.744263 L 417.30822 186.244263 L 429.80822 186.244263 L 429.80822 198.744263 Z M 417.30822 198.744263 L 417.30822 186.244263 L 411.05822 192.494263 Z M 411.05822 204.994263 L 404.80822 198.744263 L 411.05822 192.494263 L 417.30822 198.744263 Z M 411.05822 204.994263 L 404.80822 198.744263 L 404.80822 204.994263 Z M 408.472283 207.584106 L 408.472283 198.744263 L 417.312126 198.744263 L 417.312126 207.584106 Z M 399.632439 207.584106 L 399.632439 198.744263 L 395.21447 203.162231 Z M 390.792595 207.584106 L 399.632439 198.744263 L 408.472283 207.584106 L 399.632439 216.42395 Z M 381.952751 198.744263 L 390.792595 189.904419 L 381.952751 189.904419 Z M 373.116814 198.744263 L 373.116814 189.904419 L 381.956658 189.904419 L 381.956658 198.744263 Z M 373.116814 198.744263 L 373.116814 189.904419 L 368.694939 194.322388 Z M 369.452751 198.744263 L 375.702751 192.494263 L 381.952751 198.744263 L 375.702751 204.994263 Z M 363.202751 192.494263 L 369.452751 186.244263 L 363.202751 186.244263 Z M 334.097283 163.388794 L 369.452751 163.388794 L 369.452751 198.744263 L 334.097283 198.744263 Z M 334.097283 128.033325 L 369.452751 128.033325 L 351.77697 110.353638 Z M 316.421501 110.353638 L 334.097283 92.677856 L 351.773064 110.353638 L 334.097283 128.029419 Z M 316.421501 110.353638 L 334.097283 92.677856 L 316.421501 92.677856 Z M 298.741814 110.353638 L 298.741814 92.677856 L 316.417595 92.677856 L 316.417595 110.353638 Z M 298.741814 110.353638 L 298.741814 92.677856 L 289.905876 101.5177 Z M 289.905876 119.193481 L 281.066033 110.353638 L 289.905876 101.513794 L 298.74572 110.353638 Z M 289.905876 119.193481 L 281.066033 110.353638 L 281.066033 119.193481 Z M 289.905876 128.033325 L 281.066033 128.033325 L 281.066033 119.193481 L 289.905876 119.193481 Z M 289.905876 128.033325 L 281.066033 128.033325 L 285.484001 132.451294 Z M 289.905876 131.693481 L 283.655876 125.443481 L 289.905876 119.193481 L 296.155876 125.443481 Z M 283.655876 137.943481 L 277.405876 131.693481 L 277.405876 137.943481 Z M 277.405876 144.193481 L 277.405876 131.693481 L 289.905876 131.693481 L 289.905876 144.193481 Z M 264.905876 144.193481 L 264.905876 131.693481 L 258.655876 137.943481 Z M 258.655876 150.443481 L 252.405876 144.193481 L 258.655876 137.943481 L 264.905876 144.193481 Z M 258.655876 150.443481 L 252.405876 144.193481 L 252.405876 150.443481 Z M 256.066033 153.033325 L 256.066033 144.193481 L 264.905876 144.193481 L 264.905876 153.033325 Z M 247.226189 153.033325 L 247.226189 144.193481 L 242.80822 148.615356 Z M 231.066033 153.033325 L 243.566033 140.533325 L 256.066033 153.033325 L 243.566033 165.533325 Z M 218.566033 140.533325 L 231.066033 128.033325 L 218.566033 128.033325 Z M 206.066033 140.533325 L 206.066033 128.033325 L 218.566033 128.033325 L 218.566033 140.533325 Z M 206.066033 140.533325 L 206.066033 128.033325 L 199.816033 134.283325 Z M 199.816033 146.783325 L 193.566033 140.533325 L 199.816033 134.283325 L 206.066033 140.533325 Z M 199.816033 146.783325 L 193.566033 140.533325 L 193.566033 146.783325 Z M 197.226189 149.373169 L 197.226189 140.533325 L 206.066033 140.533325 L 206.066033 149.373169 Z M 188.390251 149.373169 L 188.390251 140.533325 L 183.968376 144.951294 Z M 179.550408 149.373169 L 188.390251 140.533325 L 197.230095 149.373169 L 188.390251 158.213013 Z M 170.710564 140.533325 L 179.550408 131.693481 L 170.710564 131.693481 Z M 161.87072 140.533325 L 161.87072 131.693481 L 170.710564 131.693481 L 170.710564 140.533325 Z M 161.87072 140.533325 L 161.87072 131.693481 L 157.452751 136.115356 Z M 158.210564 140.533325 L 164.460564 134.283325 L 170.710564 140.533325 L 164.460564 146.783325 Z M 151.960564 134.283325 L 158.210564 128.033325 L 151.960564 128.033325 Z M 133.210564 115.533325 L 158.210564 115.533325 L 158.210564 140.533325 L 133.210564 140.533325 Z M 133.210564 90.533325 L 158.210564 90.533325 L 145.710564 78.033325 Z M 120.710564 78.033325 L 133.210564 65.533325 L 145.710564 78.033325 L 133.210564 90.533325 Z M 120.710564 78.033325 L 133.210564 65.533325 L 120.710564 65.533325 Z M 108.210564 78.033325 L 108.210564 65.533325 L 120.710564 65.533325 L 120.710564 78.033325 Z M 108.210564 78.033325 L 108.210564 65.533325 L 101.960564 71.783325 Z M 101.960564 84.283325 L 95.710564 78.033325 L 101.960564 71.783325 L 108.210564 78.033325 Z M 101.960564 84.283325 L 95.710564 78.033325 L 95.710564 84.283325 Z M 99.37072 86.873169 L 99.37072 78.033325 L 108.210564 78.033325 L 108.210564 86.873169 Z M 90.534783 86.873169 L 90.534783 78.033325 L 86.112908 82.451294 Z M 81.694939 86.873169 L 90.534783 78.033325 L 99.374626 86.873169 L 90.534783 95.713013 Z M 72.855095 78.033325 L 81.694939 69.193481 L 72.855095 69.193481 Z M 64.015251 78.033325 L 64.015251 69.193481 L 72.855095 69.193481 L 72.855095 78.033325 Z M 64.015251 78.033325 L 64.015251 69.193481 L 59.597283 73.615356 Z M 60.355095 78.033325 L 66.605095 71.783325 L 72.855095 78.033325 L 66.605095 84.283325 Z M 54.105095 71.783325 L 60.355095 65.533325 L 54.105095 65.533325 Z M 42.679314 60.353638 L 60.355095 60.353638 L 60.355095 78.029419 L 42.679314 78.029419 Z M 42.679314 42.677856 L 60.355095 42.677856 L 51.515251 33.838013 Z M 33.83947 33.838013 L 42.679314 24.998169 L 51.519158 33.838013 L 42.679314 42.677856 Z M 33.83947 33.838013 L 42.679314 24.998169 L 33.83947 24.998169 Z M 24.999626 33.838013 L 24.999626 24.998169 L 33.83947 24.998169 L 33.83947 33.838013 Z M 24.999626 33.838013 L 24.999626 24.998169 L 20.581658 29.420044 Z M 21.33947 33.838013 L 27.58947 27.588013 L 33.83947 33.838013 L 27.58947 40.088013 Z M 15.08947 27.588013 L 21.33947 21.338013 L 15.08947 21.338013 Z M 8.83947 21.338013 L 21.33947 21.338013 L 21.33947 33.838013 L 8.83947 33.838013 Z M 8.83947 8.838013 L 21.33947 8.838013 L 15.08947 2.588013 Z M 2.58947 2.588013 L 8.83947 -3.661987 L 15.08947 2.588013 L 8.83947 8.838013 Z M 2.58947 2.588013 L 8.83947 -3.661987 L 2.58947 -3.661987 Z M -0.000373542 -0.0018312 L 8.83947 -0.0018312 L 8.83947 8.838013 L -0.000373542 8.838013 Z M -0.000373542 -8.837769 L 8.83947 -8.837769 L 4.417595 -13.259644 Z M -0.000373542 -8.837769 " transform="matrix(1,-0.000000000000029976,0.000000000000029976,1,-1891.726189,1690.685425)"/>
</g>
</svg>
