<?xml version="1.0" encoding="UTF-8"?>
<svg xmlns="http://www.w3.org/2000/svg" xmlns:xlink="http://www.w3.org/1999/xlink" width="700pt" height="700pt" viewBox="0 0 700 700" version="1.1">
<g id="surface1">
<path style="fill:none;stroke-width:2;stroke-linecap:butt;stroke-linejoin:miter;stroke:rgb(0%,0%,0%);stroke-opacity:1;stroke-miterlimit:10;" d="M 1442.46212 156.066017 L 1542.46212 156.066017 L 1542.46212 256.066017 L 1442.46212 256.066017 Z M 1442.46212 156.066017 L 1542.46212 156.066017 L 1492.46212 106.066017 Z M 1392.46212 106.066017 L 1442.46212 56.066017 L 1492.46212 106.066017 L 1442.46212 156.066017 Z M 1392.46212 106.066017 L 1442.46212 56.066017 L 1392.46212 56.066017 Z M 1342.46212 106.066017 L 1342.46212 56.066017 L 1392.46212 56.066017 L 1392.46212 106.066017 Z M 1342.46212 106.066017 L 1342.46212 56.066017 L 1317.46212 81.066017 Z M 1317.46212 131.066017 L 1292.46212 106.066017 L 1317.46212 81.066017 L 1342.46212 106.066017 Z M 1317.46212 131.066017 L 1292.46212 106.066017 L 1292.46212 131.066017 Z M 1317.46212 156.066017 L 1292.46212 156.066017 L 1292.46212 131.066017 L 1317.46212 131.066017 Z M 1317.46212 156.066017 L 1292.46212 156.066017 L 1304.96212 168.566017 Z M 1329.96212 168.566017 L 1317.46212 181.066017 L 1304.96212 168.566017 L 1317.46212 156.066017 Z M 1329.96212 168.566017 L 1317.46212 181.066017 L 1329.96212 181.066017 Z M 1335.137901 191.421486 L 1317.46212 191.421486 L 1317.46212 173.745705 L 1335.137901 173.745705 Z M 1335.137901 191.421486 L 1317.46212 191.421486 L 1326.301964 200.26133 Z M 1317.46212 226.776955 L 1299.786339 209.101173 L 1317.46212 191.425392 L 1335.137901 209.101173 Z M 1317.46212 226.776955 L 1299.786339 209.097267 L 1299.786339 226.776955 Z M 1317.46212 244.452736 L 1299.786339 244.452736 L 1299.786339 226.776955 L 1317.46212 226.776955 Z M 1317.46212 244.452736 L 1299.786339 244.452736 L 1308.622276 253.29258 Z M 1304.96212 264.276955 L 1292.46212 251.776955 L 1304.96212 239.276955 L 1317.46212 251.776955 Z M 1304.96212 264.276955 L 1292.46212 251.776955 L 1292.46212 264.276955 Z M 1246.751183 287.132423 L 1246.751183 251.776955 L 1282.106651 251.776955 L 1282.106651 287.132423 Z M 1246.751183 287.132423 L 1246.751183 251.776955 L 1229.075401 269.452736 Z M 1229.075401 304.808205 L 1211.39962 287.132423 L 1229.075401 269.456642 L 1246.751183 287.132423 Z M 1229.075401 304.808205 L 1211.395714 287.132423 L 1211.395714 304.808205 Z M 1229.075401 322.487892 L 1211.39962 322.487892 L 1211.39962 304.812111 L 1229.075401 304.812111 Z M 1229.075401 322.487892 L 1211.395714 322.487892 L 1220.235558 331.327736 Z M 1216.575401 342.308205 L 1204.075401 329.808205 L 1216.575401 317.308205 L 1229.075401 329.808205 Z M 1216.575401 342.308205 L 1204.075401 329.808205 L 1204.075401 342.308205 Z M 1179.075401 354.808205 L 1179.075401 329.808205 L 1204.075401 329.808205 L 1204.075401 354.808205 Z M 1179.075401 354.808205 L 1179.075401 329.808205 L 1166.575401 342.308205 Z M 1166.575401 367.308205 L 1154.075401 354.808205 L 1166.575401 342.308205 L 1179.075401 354.808205 Z M 1166.575401 367.308205 L 1154.075401 354.808205 L 1154.075401 367.308205 Z M 1143.719933 372.487892 L 1143.719933 354.812111 L 1161.395714 354.812111 L 1161.395714 372.487892 Z M 1143.719933 372.487892 L 1143.719933 354.808205 L 1134.880089 363.648048 Z M 1055.329308 337.132423 L 1090.684776 301.776955 L 1126.040245 337.132423 L 1090.684776 372.487892 Z M 1055.329308 337.132423 L 1090.684776 301.776955 L 1055.329308 301.776955 Z M 1019.973839 337.132423 L 1019.973839 301.776955 L 1055.329308 301.776955 L 1055.329308 337.132423 Z M 1019.973839 337.132423 L 1019.973839 301.776955 L 1002.298058 319.452736 Z M 1002.298058 354.808205 L 984.622276 337.132423 L 1002.298058 319.456642 L 1019.973839 337.132423 Z M 1002.298058 354.808205 L 984.61837 337.132423 L 984.61837 354.808205 Z M 1002.298058 372.487892 L 984.622276 372.487892 L 984.622276 354.812111 L 1002.298058 354.812111 Z M 1002.298058 372.487892 L 984.61837 372.487892 L 993.458214 381.327736 Z M 989.798058 392.308205 L 977.298058 379.808205 L 989.798058 367.308205 L 1002.298058 379.808205 Z M 989.798058 392.308205 L 977.298058 379.808205 L 977.298058 392.308205 Z M 952.298058 404.808205 L 952.298058 379.808205 L 977.298058 379.808205 L 977.298058 404.808205 Z M 952.298058 404.808205 L 952.298058 379.808205 L 939.798058 392.308205 Z M 939.798058 417.308205 L 927.298058 404.808205 L 939.798058 392.308205 L 952.298058 404.808205 Z M 939.798058 417.308205 L 927.298058 404.808205 L 927.298058 417.308205 Z M 916.942589 422.487892 L 916.942589 404.812111 L 934.61837 404.812111 L 934.61837 422.487892 Z M 916.942589 422.487892 L 916.942589 404.808205 L 908.102745 413.648048 Z M 859.61837 397.487892 L 884.61837 372.487892 L 909.61837 397.487892 L 884.61837 422.487892 Z M 859.61837 397.487892 L 884.61837 372.487892 L 859.61837 372.487892 Z M 834.61837 397.487892 L 834.61837 372.487892 L 859.61837 372.487892 L 859.61837 397.487892 Z M 834.61837 397.487892 L 834.61837 372.487892 L 822.11837 384.987892 Z M 822.11837 409.987892 L 809.61837 397.487892 L 822.11837 384.987892 L 834.61837 397.487892 Z M 822.11837 409.987892 L 809.61837 397.487892 L 809.61837 409.987892 Z M 799.262901 415.163673 L 799.262901 397.487892 L 816.938683 397.487892 L 816.938683 415.163673 Z M 799.262901 415.163673 L 799.262901 397.487892 L 790.426964 406.327736 Z M 763.907433 397.487892 L 781.583214 379.812111 L 799.258995 397.487892 L 781.583214 415.163673 Z M 763.907433 397.487892 L 781.58712 379.808205 L 763.907433 379.808205 Z M 746.231651 397.487892 L 746.231651 379.812111 L 763.907433 379.812111 L 763.907433 397.487892 Z M 746.231651 397.487892 L 746.231651 379.808205 L 737.391808 388.648048 Z M 726.407433 384.987892 L 738.907433 372.487892 L 751.407433 384.987892 L 738.907433 397.487892 Z M 726.407433 384.987892 L 738.907433 372.487892 L 726.407433 372.487892 Z M 668.196495 256.066017 L 738.907433 256.066017 L 738.907433 326.776955 L 668.196495 326.776955 Z M 668.196495 256.066017 L 738.907433 256.066017 L 703.551964 220.710548 Z M 632.841026 220.710548 L 668.196495 185.35508 L 703.551964 220.710548 L 668.196495 256.066017 Z M 632.841026 220.710548 L 668.196495 185.35508 L 632.841026 185.35508 Z M 597.485558 220.710548 L 597.485558 185.35508 L 632.841026 185.35508 L 632.841026 220.710548 Z M 597.485558 220.710548 L 597.485558 185.35508 L 579.809776 203.034767 Z M 579.809776 238.390236 L 562.133995 220.714455 L 579.809776 203.038673 L 597.485558 220.714455 Z M 579.809776 238.390236 L 562.130089 220.710548 L 562.130089 238.390236 Z M 579.809776 256.066017 L 562.133995 256.066017 L 562.133995 238.390236 L 579.809776 238.390236 Z M 579.809776 256.066017 L 562.130089 256.066017 L 570.969933 264.905861 Z M 567.309776 275.890236 L 554.809776 263.390236 L 567.309776 250.890236 L 579.809776 263.390236 Z M 567.309776 275.890236 L 554.809776 263.390236 L 554.809776 275.890236 Z M 529.809776 288.390236 L 529.809776 263.390236 L 554.809776 263.390236 L 554.809776 288.390236 Z M 529.809776 288.390236 L 529.809776 263.390236 L 517.309776 275.890236 Z M 517.309776 300.890236 L 504.809776 288.390236 L 517.309776 275.890236 L 529.809776 288.390236 Z M 517.309776 300.890236 L 504.809776 288.390236 L 504.809776 300.890236 Z M 494.454308 306.066017 L 494.454308 288.390236 L 512.130089 288.390236 L 512.130089 306.066017 Z M 494.454308 306.066017 L 494.454308 288.390236 L 485.614464 297.226173 Z M 437.130089 281.066017 L 462.130089 256.066017 L 487.130089 281.066017 L 462.130089 306.066017 Z M 437.130089 281.066017 L 462.130089 256.066017 L 437.130089 256.066017 Z M 412.130089 281.066017 L 412.130089 256.066017 L 437.130089 256.066017 L 437.130089 281.066017 Z M 412.130089 281.066017 L 412.130089 256.066017 L 399.630089 268.566017 Z M 399.630089 293.566017 L 387.130089 281.066017 L 399.630089 268.566017 L 412.130089 281.066017 Z M 399.630089 293.566017 L 387.130089 281.066017 L 387.130089 293.566017 Z M 376.778526 298.741798 L 376.778526 281.066017 L 394.454308 281.066017 L 394.454308 298.741798 Z M 376.778526 298.741798 L 376.778526 281.066017 L 367.938683 289.905861 Z M 341.423058 281.066017 L 359.098839 263.390236 L 376.77462 281.066017 L 359.098839 298.741798 Z M 341.423058 281.066017 L 359.098839 263.390236 L 341.423058 263.390236 Z M 323.74337 281.066017 L 323.74337 263.390236 L 341.419151 263.390236 L 341.419151 281.066017 Z M 323.74337 281.066017 L 323.74337 263.390236 L 314.903526 272.226173 Z M 303.923058 268.566017 L 316.423058 256.066017 L 328.923058 268.566017 L 316.423058 281.066017 Z M 303.923058 268.566017 L 316.423058 256.066017 L 303.923058 256.066017 Z M 266.423058 181.066017 L 316.423058 181.066017 L 316.423058 231.066017 L 266.423058 231.066017 Z M 266.423058 181.066017 L 316.423058 181.066017 L 291.423058 156.066017 Z M 241.423058 156.066017 L 266.423058 131.066017 L 291.423058 156.066017 L 266.423058 181.066017 Z M 241.423058 156.066017 L 266.423058 131.066017 L 241.423058 131.066017 Z M 216.423058 156.066017 L 216.423058 131.066017 L 241.423058 131.066017 L 241.423058 156.066017 Z M 216.423058 156.066017 L 216.423058 131.066017 L 203.923058 143.566017 Z M 203.923058 168.566017 L 191.423058 156.066017 L 203.923058 143.566017 L 216.423058 156.066017 Z M 203.923058 168.566017 L 191.423058 156.066017 L 191.423058 168.566017 Z M 181.067589 173.741798 L 181.067589 156.066017 L 198.74337 156.066017 L 198.74337 173.741798 Z M 181.067589 173.741798 L 181.067589 156.066017 L 172.227745 164.905861 Z M 145.71212 156.066017 L 163.387901 138.390236 L 181.063683 156.066017 L 163.387901 173.741798 Z M 145.71212 156.066017 L 163.387901 138.390236 L 145.71212 138.390236 Z M 128.032433 156.066017 L 128.032433 138.390236 L 145.708214 138.390236 L 145.708214 156.066017 Z M 128.032433 156.066017 L 128.032433 138.390236 L 119.192589 147.226173 Z M 108.21212 143.566017 L 120.71212 131.066017 L 133.21212 143.566017 L 120.71212 156.066017 Z M 108.21212 143.566017 L 120.71212 131.066017 L 108.21212 131.066017 Z M 85.356651 85.35508 L 120.71212 85.35508 L 120.71212 120.710548 L 85.356651 120.710548 Z M 85.356651 85.35508 L 120.71212 85.35508 L 103.032433 67.679298 Z M 67.676964 67.679298 L 85.352745 50.003517 L 103.028526 67.679298 L 85.352745 85.35508 Z M 67.676964 67.679298 L 85.356651 49.999611 L 67.676964 49.999611 Z M 50.001183 67.679298 L 50.001183 50.003517 L 67.676964 50.003517 L 67.676964 67.679298 Z M 50.001183 67.679298 L 50.001183 49.999611 L 41.161339 58.839455 Z M 30.176964 55.179298 L 42.676964 42.679298 L 55.176964 55.179298 L 42.676964 67.679298 Z M 30.176964 55.179298 L 42.676964 42.679298 L 30.176964 42.679298 Z M 17.676964 17.679298 L 42.676964 17.679298 L 42.676964 42.679298 L 17.676964 42.679298 Z M 17.676964 17.679298 L 42.676964 17.679298 L 30.176964 5.179298 Z M 5.176964 5.179298 L 17.676964 -7.320702 L 30.176964 5.179298 L 17.676964 17.679298 Z M 5.176964 5.179298 L 17.676964 -7.320702 L 5.176964 -7.320702 Z M 0.00118275 -17.67617 L 17.676964 -17.67617 L 17.676964 -0.000389072 L 0.00118275 -0.000389072 Z M 0.00118275 -17.67617 L 17.676964 -17.67617 L 8.83712 -26.516014 Z M 0.00118275 -17.67617 " transform="matrix(1,-0.000000000000006939,0.000000000000006939,1,-992.46212,143.933983)"/>
</g>
</svg>
